# xmcd
#
# Track frame offsets:
#	150
#	11215
#	21515
#	31227
#	41872
#	52605
#	64810
#	76450
#	88852
#	97865
#	106902
#	118422
#	129857
#	140915
#	153590
#	163837
#	174942
#	184132
#	194370
#	205987
#	214952
#	224377
#	234887
#	244107
#	255517
#	265612
#	278072
#	289312
#	299055
#
# Disc length: 4162 seconds
#
# Revision: 1
# Processed by: cddbd v1.5.2PL0 Copyright (c) Steve Scherf et al.
# Submitted via: EasyCDDAExtractor 16.0.1.1
#
DISCID=b610401d
DTITLE=Sheb Wooley - Wild And Wooley  Big Unruly Me
DYEAR=1997
DGENRE=Country
TTITLE0=Recipe For Love
TTITLE1=I´m Too Young
TTITLE2=Magic Town
TTITLE3=Till The End Of The World
TTITLE4=Meet Mr. Lonely
TTITLE5=Sweet Chile
TTITLE6=Will I Ever
TTITLE7=Where
TTITLE8=Cherry Sweet
TTITLE9=So Close To Heaven
TTITLE10=More
TTITLE11=Careless Hands
TTITLE12=Big Ole, Good Ole Girl
TTITLE13=One Of Them Roarin´ Songs
TTITLE14=Buba Hoo Baba Dee
TTITLE15=Little Bitty Bilbo Abernathy Nathan Allen Quincy Jones
TTITLE16=Free Again
TTITLE17=The Little Girl´s Gone
TTITLE18=My Only Treasure
TTITLE19=Plenty Of Love
TTITLE20=Mississippi Twist
TTITLE21=Deep Goes M´ Love
TTITLE22=I Won´t Come Back
TTITLE23=Hootenanny Hoot
TTITLE24=Don´t Talk To Strangers
TTITLE25=Wild And Wooley, Big Unruly Me (1)
TTITLE26=That Girl Next Door
TTITLE27=It´s Almost Time
TTITLE28=Give The Ball To Willie B.
EXTD=
EXTT0=
EXTT1=
EXTT2=
EXTT3=
EXTT4=
EXTT5=
EXTT6=
EXTT7=
EXTT8=
EXTT9=
EXTT10=
EXTT11=
EXTT12=
EXTT13=
EXTT14=
EXTT15=
EXTT16=
EXTT17=
EXTT18=
EXTT19=
EXTT20=
EXTT21=
EXTT22=
EXTT23=
EXTT24=
EXTT25=
EXTT26=
EXTT27=
EXTT28=
PLAYORDER=
